PERFORMER "ArtistName"
TITLE "AlbumName"
FILE "01. Track01.flac" WAVE
    TRACK 01 AUDIO
        TITLE "Title01"
        INDEX 01  REM DATE 1977
  PERFORMER "Meat Loaf"
    TITLE "Batt Bad"
    Out Of Hell"
FILE "Side 1.flac" WAVE
  TRACK 01 AUDIO
    TITLE "1.1 Bat Out Of Hell"
    INDEX 01 00:00:00
  TRACK 02  AUDIO
    TITLE "1.2 You Took The Words Right Out Of My Mouth (Hot Sum REM DATE 1977
  PERFORMER "Mea0
  TRACK 03 AUDIO
    TITLE "1.3 Heaven Can Wait"
    INDEX 01 14:57:00
  TRACK 04 AUDIO
    TITLE "1.4 All Revved Up With No Place To Go"
    INDEX 01 19:39:00
FILE "Side 2.flac" WAVE
  TRACK 05 AUDIO
     Sum REM DATE TITLE "2.1 Two Out Of Three Ain't Bad"
    INDEX 01 00:00:00
  TRACK 06 AUDIO
    TITLE "2.2 Paradise